# xmcd
#
# Track frame offsets: 
#        150
#        16419
#        31931
#        49331
#        65011
#        79352
#        95674
#        110828
#        125561
#        140881
#        154921
#        171831
#
# Disc length: 2492 seconds
#
# Revision: 0
# Processed by: cddbd v1.5.2PL0 Copyright (c) Steve Scherf et al.
# Submitted via: ExactAudioCopy v1.1
#
DISCID=b309ba0c
DTITLE=Slongs - #Goegaan
DYEAR=2019
DGENRE=Rap
TTITLE0=Die Dagen
TTITLE1=Slongs Feat. Jack Parow - De Zon
TTITLE2=Slongs Feat. Halve Neuro - Wa Kik Bedoel
TTITLE3=Slongs Feat. Raymond Van Het Groenewoud - Wat Je Doet Met Mij
TTITLE4=Slow Down
TTITLE5=De Kleur Van Uw Leven
TTITLE6=Wachters Aan De Poort
TTITLE7=Slongs Feat. Kiid Le Roi - Lesten Dag
TTITLE8=Wat Overdag Ni Mag
TTITLE9=Slongs Feat. Saimn I - Met A Dansen
TTITLE10=Doelloze Ziel
TTITLE11=Halverwege
EXTD=
EXTT0=
EXTT1=
EXTT2=
EXTT3=
EXTT4=
EXTT5=
EXTT6=
EXTT7=
EXTT8=
EXTT9=
EXTT10=
EXTT11=
PLAYORDER=
